<?xml version="1.0" encoding="utf-8"?>
<!-- Generator: Adobe Illustrator 27.2.0, SVG Export Plug-In . SVG Version: 6.00 Build 0)  -->
<svg version="1.1" id="Layer_1" xmlns="http://www.w3.org/2000/svg" xmlns:xlink="http://www.w3.org/1999/xlink" x="0px" y="0px"
	 viewBox="0 0 48 48" style="enable-background:new 0 0 48 48;" xml:space="preserve" fill="#C86B7B">
<path d="M48,48l-9.5-9.5H4c-1,0-2-0.4-2.8-1.2S0,35.5,0,34.5V4C0,3,0.4,2,1.2,1.2S3,0,4,0h40c1.1,0,2,0.4,2.8,1.2C47.6,2,48,3,48,4
	V48z M4,4v30.5h35.9l4.1,4V4H4z M4,4v34.5V4z"/>
<path d="M18.8,31.1c-0.3,0-0.6-0.1-0.9-0.2s-0.5-0.3-0.8-0.5l-9.1-9c-0.5-0.5-0.7-1-0.7-1.7s0.2-1.2,0.7-1.7c0.5-0.5,1-0.7,1.7-0.7
	s1.2,0.2,1.7,0.7l7.3,7.3L36.3,7.8c0.5-0.5,1-0.7,1.7-0.7c0.7,0,1.2,0.2,1.7,0.7c0.5,0.5,0.7,1,0.7,1.7c0,0.7-0.2,1.2-0.7,1.7
	L20.4,30.4c-0.2,0.2-0.5,0.4-0.8,0.5C19.4,31,19.1,31.1,18.8,31.1z"/>
</svg>
