<?xml version="1.0" encoding="utf-8"?>
<!-- Generator: Adobe Illustrator 27.2.0, SVG Export Plug-In . SVG Version: 6.00 Build 0)  -->
<svg version="1.1" id="Layer_1" xmlns="http://www.w3.org/2000/svg" xmlns:xlink="http://www.w3.org/1999/xlink" x="0px" y="0px"
	 viewBox="0 0 48 48" style="enable-background:new 0 0 48 48;" xml:space="preserve" fill="#D0BB00">
<path d="M25.8,48l-0.5-6.7h-2.3c-5.6-0.1-10.4-2.2-14.3-6.2s-5.9-8.8-5.9-14.5c0-5.7,2-10.6,6.1-14.6s9-6,14.7-6
	c2.8,0,5.5,0.5,7.9,1.6s4.5,2.5,6.3,4.3c1.8,1.8,3.2,4,4.2,6.5c1,2.5,1.5,5.2,1.5,8.1c0,2.7-0.4,5.4-1.2,8s-2,5.2-3.5,7.6
	c-1.5,2.4-3.4,4.6-5.6,6.6C30.8,44.7,28.4,46.5,25.8,48z M29.1,40.9c3.2-2.7,5.7-5.9,7.5-9.5c1.8-3.6,2.7-7.3,2.7-11
	c0-4.8-1.5-8.8-4.5-11.9c-3-3.1-6.8-4.6-11.4-4.6c-4.7,0-8.7,1.6-11.9,4.9S6.6,16,6.6,20.6s1.6,8.5,4.9,11.8s7.2,4.9,11.8,4.9h5.9
	V40.9z M23.4,34.3c0.7,0,1.2-0.2,1.7-0.7c0.5-0.4,0.7-1,0.7-1.7c0-0.7-0.2-1.2-0.7-1.7s-1-0.7-1.7-0.7c-0.7,0-1.2,0.2-1.7,0.7
	s-0.7,1-0.7,1.7s0.2,1.2,0.7,1.7C22.2,34.1,22.7,34.3,23.4,34.3z M21.7,26.2h3.2c0-1,0.2-1.8,0.5-2.5c0.4-0.7,1-1.5,2-2.5
	c1.1-1.1,1.8-2,2.2-2.9s0.6-1.8,0.6-2.9c0-1.8-0.6-3.3-1.8-4.4s-2.8-1.7-4.9-1.7c-1.6,0-3.1,0.4-4.4,1.3s-2.3,2.1-3,3.6l3,1.2
	c0.4-1,1-1.8,1.8-2.3c0.7-0.5,1.6-0.8,2.5-0.8c1.1,0,2,0.3,2.7,0.8c0.6,0.5,1,1.3,1,2.2c0,0.7-0.2,1.4-0.6,2.2
	c-0.4,0.8-1.2,1.7-2.2,2.8c-1.1,1.1-1.8,2-2.1,2.7C21.9,23.8,21.7,24.9,21.7,26.2z"/>
</svg>
