<?xml version="1.0" encoding="utf-8"?>
<!-- Generator: Adobe Illustrator 27.2.0, SVG Export Plug-In . SVG Version: 6.00 Build 0)  -->
<svg version="1.1" id="Layer_1" xmlns="http://www.w3.org/2000/svg" xmlns:xlink="http://www.w3.org/1999/xlink" x="0px" y="0px"
	 viewBox="0 0 48 48" style="enable-background:new 0 0 48 48;" xml:space="preserve" fill="#353C42">
<path d="M18.2,26c-2,0-3.7-0.7-5.1-2.1c-1.4-1.4-2.1-3.1-2.1-5.1c0-1.2,0.2-2.2,0.7-3c0.5-0.8,0.9-1.6,1.3-2.5
	c-0.1-0.5-0.2-1.1-0.4-1.6c-0.1-0.5-0.2-1.1-0.2-1.6c0-1.5,0.4-2.9,1.2-4.1c0.8-1.2,2-2.1,3.5-2.7c0.9-0.9,1.8-1.7,2.9-2.3
	C21.2,0.3,22.5,0,24,0c1.5,0,2.8,0.3,3.9,0.9s2,1.4,2.9,2.3c1.5,0.6,2.7,1.5,3.5,2.7c0.8,1.2,1.2,2.6,1.2,4.1c0,0.5-0.1,1.1-0.2,1.6
	c-0.1,0.5-0.3,1.1-0.4,1.6c0.4,0.9,0.9,1.8,1.3,2.5c0.5,0.8,0.7,1.8,0.7,3c0,2-0.7,3.7-2.1,5.1c-1.4,1.4-3.1,2.1-5.1,2.1H18.2z
	 M18.2,22.7h11.6c1.1,0,2-0.4,2.8-1.2c0.8-0.8,1.2-1.7,1.2-2.7c0-0.5-0.1-0.9-0.2-1.3c-0.1-0.4-0.4-0.8-0.7-1.2
	c-0.4-0.5-0.7-1-0.9-1.5c-0.1-0.5-0.2-0.9-0.2-1.4c0-0.6,0.1-1.1,0.3-1.7c0.2-0.6,0.3-1.1,0.3-1.6c0-0.8-0.2-1.6-0.7-2.2
	c-0.4-0.7-1-1.1-1.8-1.5c-0.4-0.1-0.7-0.3-1-0.5c-0.3-0.2-0.5-0.5-0.8-0.8c-0.3-0.3-0.9-0.7-1.6-1.2C25.9,3.5,25,3.3,24,3.3
	c-1,0-1.9,0.2-2.6,0.7c-0.7,0.5-1.2,0.9-1.6,1.2c-0.2,0.3-0.5,0.5-0.8,0.8c-0.3,0.2-0.6,0.4-1,0.5c-0.8,0.3-1.4,0.8-1.8,1.4
	c-0.4,0.7-0.7,1.4-0.7,2.2c0,0.5,0.1,1,0.3,1.6c0.2,0.6,0.3,1.1,0.3,1.7c0,0.4-0.1,0.9-0.2,1.4c-0.1,0.5-0.4,1-0.9,1.5
	c-0.3,0.4-0.6,0.8-0.7,1.2s-0.2,0.9-0.2,1.3c0,1,0.4,1.9,1.2,2.7C16.2,22.3,17.1,22.7,18.2,22.7z M2.3,48v-5.5c0-1.5,0.4-2.9,1.2-4
	c0.8-1.2,1.9-2,3.2-2.7c3.1-1.3,6-2.4,8.9-3c2.8-0.7,5.6-1,8.4-1c2.8,0,5.6,0.3,8.4,1c2.8,0.7,5.7,1.7,8.8,3.1
	c1.3,0.6,2.4,1.5,3.3,2.6c0.8,1.1,1.2,2.5,1.2,4V48H2.3z M5.6,44.7h36.9v-2.2c0-0.7-0.2-1.4-0.7-2.1c-0.5-0.7-1.1-1.2-1.9-1.6
	c-2.8-1.4-5.5-2.4-8.1-2.9C29.2,35.3,26.7,35,24,35s-5.3,0.3-7.8,0.8c-2.6,0.6-5.3,1.5-8.1,2.9c-0.7,0.4-1.3,0.9-1.8,1.6
	c-0.5,0.7-0.7,1.4-0.7,2.1V44.7z"/>
</svg>
