<?xml version="1.0" encoding="utf-8"?>
<!-- Generator: Adobe Illustrator 27.2.0, SVG Export Plug-In . SVG Version: 6.00 Build 0)  -->
<svg version="1.1" id="Layer_1" xmlns="http://www.w3.org/2000/svg" xmlns:xlink="http://www.w3.org/1999/xlink" x="0px" y="0px"
	 viewBox="0 0 48 48" style="enable-background:new 0 0 48 48;" xml:space="preserve">
<style type="text/css">
	.st0{fill:#353C42;}
</style>
<path class="st0" d="M0.7,48L0,42.8l8.2-22.4c0.6,0.6,1.2,1.1,1.9,1.4c0.7,0.4,1.4,0.6,2.2,0.9L4.5,44.3L0.7,48z M28.6,48l-3.8-3.6
	l-8-21.5c0.7-0.2,1.5-0.5,2.2-0.9s1.4-0.8,1.9-1.4l8.2,22.3L28.6,48z M14.6,21.8c-2.3,0-4.2-0.8-5.9-2.4c-1.6-1.6-2.4-3.6-2.4-5.9
	c0-1.9,0.6-3.6,1.7-5.1s2.5-2.4,4.3-2.8V0h4.6v5.6C18.7,6,20.1,7,21.2,8.4c1.1,1.5,1.7,3.2,1.7,5.1c0,2.3-0.8,4.2-2.4,5.9
	C18.9,21.1,16.9,21.8,14.6,21.8z M14.6,17.1c1,0,1.8-0.4,2.5-1.1c0.7-0.7,1.1-1.6,1.1-2.5s-0.4-1.8-1.1-2.5
	c-0.7-0.8-1.5-1.1-2.5-1.1s-1.8,0.4-2.5,1.1S11,12.6,11,13.5s0.4,1.8,1.1,2.5C12.8,16.7,13.6,17.1,14.6,17.1z"/>
</svg>
