<?xml version="1.0" encoding="utf-8"?>
<!-- Generator: Adobe Illustrator 27.2.0, SVG Export Plug-In . SVG Version: 6.00 Build 0)  -->
<svg version="1.1" id="Layer_1" xmlns="http://www.w3.org/2000/svg" xmlns:xlink="http://www.w3.org/1999/xlink" x="0px" y="0px"
	 viewBox="0 0 48 48" style="enable-background:new 0 0 48 48;" xml:space="preserve">
<style type="text/css">
	.st0{fill:#353C42;}
</style>
<path class="st0" d="M27.3,18.5L17.7,9l2.8-2.7l6.8,6.9L40.5,0l2.7,2.6L27.3,18.5z M29.9,45.8l-17.3-5V21.2h5.2l14.4,5.4
	c1.1,0.4,2,1.1,2.7,1.9c0.7,0.9,1.1,2.1,1.1,3.8h-3.9c-1.8,0-3.2-0.1-4-0.2c-0.8-0.1-1.8-0.3-2.7-0.6l-4.1-1.4l-0.6,1.9l4.3,1.5
	c0.8,0.3,1.8,0.5,2.9,0.6c1.1,0.1,2.2,0.2,3.3,0.2h11c2.3,0,3.8,0.4,4.6,1.2c0.8,0.8,1.2,1.9,1.2,3.3v1.5L29.9,45.8z M0,44V21.2h8.8
	V44H0z"/>
</svg>
