<?xml version="1.0" encoding="utf-8"?>
<!-- Generator: Adobe Illustrator 27.2.0, SVG Export Plug-In . SVG Version: 6.00 Build 0)  -->
<svg version="1.1" id="Layer_1" xmlns="http://www.w3.org/2000/svg" xmlns:xlink="http://www.w3.org/1999/xlink" x="0px" y="0px"
	 viewBox="0 0 48 48" style="enable-background:new 0 0 48 48;" xml:space="preserve">
<style type="text/css">
	.st0{fill:#353C42;}
</style>
<path class="st0" d="M35.1,41.4l-0.6-3.9c-0.6-0.2-1.2-0.4-1.9-0.8c-0.6-0.3-1.1-0.7-1.6-1.2l-3.4,0.8l-1.7-3l2.8-2.6
	c-0.1-0.3-0.1-0.7-0.1-1.3c0-0.6,0-1,0.1-1.2l-2.8-2.7l1.7-3l3.4,0.8c0.4-0.4,0.9-0.8,1.6-1.2c0.6-0.4,1.2-0.6,1.9-0.8l0.6-3.9h3.8
	l0.6,3.9c0.6,0.2,1.2,0.4,1.8,0.8c0.6,0.4,1.2,0.8,1.6,1.2l3.3-0.8l1.7,3l-2.8,2.7c0.1,0.3,0.2,0.7,0.2,1.3c0,0.6-0.1,1-0.2,1.3
	l2.8,2.6l-1.7,3L43,35.5c-0.4,0.4-1,0.8-1.6,1.2c-0.6,0.3-1.2,0.6-1.8,0.8l-0.6,3.9L35.1,41.4z M0,39.2v-6.3c0-1.6,0.4-3,1.2-4.2
	s1.9-2.1,3.2-2.7c2.8-1.2,5.4-2.1,7.9-2.7c2.5-0.6,4.8-0.8,7-0.8h1.9c-1.2,2.3-1.7,5.2-1.6,8.7c0.1,3.5,1,6.2,2.6,8H0z M37.1,33.8
	c1.3,0,2.4-0.4,3.2-1.2c0.8-0.8,1.2-1.9,1.2-3.3c0-1.3-0.4-2.4-1.2-3.2c-0.8-0.8-1.9-1.2-3.2-1.2c-1.3,0-2.4,0.4-3.2,1.2
	C33,27,32.6,28,32.6,29.3c0,1.4,0.4,2.4,1.2,3.3C34.7,33.4,35.7,33.8,37.1,33.8z M19.3,19c-2.8,0-5.1-0.9-6.8-2.7s-2.7-4.1-2.7-6.8
	c0-2.8,0.9-5.1,2.7-6.9S16.6,0,19.3,0s5.1,0.9,6.9,2.7c1.8,1.8,2.7,4.1,2.7,6.9c0,2.8-0.9,5.1-2.7,6.8C24.4,18.1,22.1,19,19.3,19z"
	/>
</svg>
