<?xml version="1.0" encoding="utf-8"?>
<!-- Generator: Adobe Illustrator 27.2.0, SVG Export Plug-In . SVG Version: 6.00 Build 0)  -->
<svg version="1.1" id="Layer_1" xmlns="http://www.w3.org/2000/svg" xmlns:xlink="http://www.w3.org/1999/xlink" x="0px" y="0px"
	 viewBox="0 0 48 48" style="enable-background:new 0 0 48 48;" xml:space="preserve"  fill="#353C42">
<path d="M24,22.8c-3.1,0-5.6-1-7.6-3s-3-4.5-3-7.6s1-5.6,3-7.6s4.5-3,7.6-3s5.6,1,7.6,3s3,4.5,3,7.6s-1,5.6-3,7.6S27.1,22.8,24,22.8
	z M0,47.1v-6.1c0-1.7,0.5-3.2,1.4-4.5c0.9-1.3,2.1-2.3,3.5-3c3.4-1.5,6.7-2.6,9.8-3.4c3.1-0.7,6.2-1.1,9.3-1.1s6.2,0.4,9.3,1.2
	c3.1,0.8,6.4,1.9,9.7,3.4c1.5,0.7,2.7,1.7,3.6,2.9c0.9,1.3,1.4,2.7,1.4,4.4v6.1H0z M3.6,43.5h40.8v-2.5c0-0.8-0.3-1.6-0.8-2.4
	c-0.5-0.8-1.2-1.4-2.1-1.8c-3.1-1.5-6.1-2.6-8.9-3.2c-2.8-0.6-5.7-0.9-8.6-0.9s-5.8,0.3-8.7,0.9s-5.8,1.7-8.9,3.2
	c-0.8,0.4-1.5,1-2,1.8s-0.8,1.6-0.8,2.4V43.5z M24,19.2c2,0,3.6-0.7,5-2c1.3-1.3,2-3,2-5c0-2-0.7-3.6-2-5c-1.3-1.3-3-2-5-2
	c-2,0-3.6,0.7-5,2c-1.3,1.3-2,3-2,5c0,2,0.7,3.7,2,5C20.4,18.5,22,19.2,24,19.2z"/>
</svg>
