<?xml version="1.0" encoding="utf-8"?>
<!-- Generator: Adobe Illustrator 27.2.0, SVG Export Plug-In . SVG Version: 6.00 Build 0)  -->
<svg version="1.1" id="Layer_1" xmlns="http://www.w3.org/2000/svg" xmlns:xlink="http://www.w3.org/1999/xlink" x="0px" y="0px"
	 viewBox="0 0 48 48" style="enable-background:new 0 0 48 48;" xml:space="preserve">
<style type="text/css">
	.st0{fill:#353C42;}
</style>
<path class="st0" d="M24,23.7c-3.1,0-5.6-1-7.6-3s-3-4.5-3-7.6s1-5.6,3-7.6s4.5-3,7.6-3s5.6,1,7.6,3s3,4.5,3,7.6s-1,5.6-3,7.6
	S27.1,23.7,24,23.7z M0,48v-6.1c0-1.7,0.5-3.2,1.4-4.5s2.1-2.3,3.5-3c3.4-1.5,6.7-2.6,9.8-3.4c3.1-0.7,6.2-1.1,9.3-1.1
	s6.2,0.4,9.3,1.2c3.1,0.8,6.4,1.9,9.7,3.4c1.5,0.7,2.7,1.7,3.6,2.9c0.9,1.3,1.4,2.7,1.4,4.4v6.1L0,48L0,48z M3.6,44.4h40.8v-2.5
	c0-0.8-0.3-1.6-0.8-2.4c-0.5-0.8-1.2-1.4-2.1-1.8c-3.1-1.5-6.1-2.6-8.9-3.2c-2.8-0.6-5.7-0.9-8.6-0.9s-5.8,0.3-8.7,0.9
	s-5.8,1.7-8.9,3.2c-0.8,0.4-1.5,1-2,1.8s-0.8,1.6-0.8,2.4C3.6,41.9,3.6,44.4,3.6,44.4z M24,20.1c2,0,3.6-0.7,5-2c1.3-1.3,2-3,2-5
	s-0.7-3.6-2-5c-1.3-1.3-3-2-5-2s-3.6,0.7-5,2c-1.3,1.3-2,3-2,5s0.7,3.7,2,5C20.4,19.4,22,20.1,24,20.1z"/>
</svg>
