<svg width="35" height="35" viewBox="0 0 35 35" fill="none" xmlns="http://www.w3.org/2000/svg">
<path d="M17.5 1C8.39617 1 1 8.40801 1 17.5264C1 25.804 7.09565 32.6544 15.0347 33.8489L15.896 33.9795V20.9567H11.998V18.3128H15.896V14.8018C15.896 12.6398 16.414 11.2159 17.2715 10.3225C18.129 9.42914 19.396 8.97857 21.1592 8.97857C22.569 8.97857 23.1175 9.06413 23.6392 9.12822V11.2923H21.8037C20.7623 11.2923 19.9078 11.8743 19.4644 12.6495C19.0209 13.4246 18.8828 14.3502 18.8828 15.2933V18.3114H23.4751L23.0664 20.9552H18.8828V34L19.7339 33.8841C27.7858 32.7903 34 25.8849 34 17.5264C34 8.40801 26.6038 1 17.5 1ZM17.5 2.5024C25.7932 2.5024 32.5 9.21996 32.5 17.5264C32.5 24.8354 27.2768 30.8465 20.3828 32.1998V22.4576H24.3525L25.2241 16.809H20.3828V15.2933C20.3828 14.514 20.5252 13.8157 20.7651 13.3963C21.0051 12.9769 21.2364 12.7947 21.8037 12.7947H25.1392V7.76814L24.4888 7.68011C24.0389 7.61914 23.0119 7.47617 21.1592 7.47617C19.1319 7.47617 17.3917 8.02932 16.1904 9.28081C14.9892 10.5323 14.396 12.3958 14.396 14.8018V16.8104H10.498V22.4591H14.396V32.1528C7.61275 30.7136 2.5 24.7563 2.5 17.5264C2.5 9.21996 9.20683 2.5024 17.5 2.5024Z" fill="#C86B7B" stroke="#C86B7B"/>
</svg>
