<svg width="21" height="20" viewBox="0 0 21 20" fill="none" xmlns="http://www.w3.org/2000/svg">
<path d="M10.016 0C4.4897 0 0 4.4897 0 10.016C0 15.0327 3.70025 19.1845 8.51947 19.9084L9.04233 19.9876V12.095H6.67615V10.4926H9.04233V8.36475C9.04233 7.05444 9.35676 6.19145 9.87729 5.65001C10.3978 5.10857 11.1669 4.8355 12.2372 4.8355C13.0931 4.8355 13.426 4.88735 13.7427 4.9262V6.23777H12.6285C11.9963 6.23777 11.4776 6.59049 11.2084 7.06029C10.9392 7.53009 10.8554 8.09103 10.8554 8.66264V10.4917H13.6431L13.395 12.0941H10.8554V20L11.372 19.9298C16.2598 19.2669 20.032 15.0818 20.032 10.016C20.032 4.4897 15.5423 0 10.016 0ZM10.016 0.910546C15.0502 0.910546 19.1215 4.9818 19.1215 10.016C19.1215 14.4457 15.9509 18.0888 11.766 18.9089V13.0046H14.1757L14.7048 9.58118H11.766V8.66264C11.766 8.1903 11.8524 7.76709 11.998 7.51289C12.1437 7.2587 12.2841 7.14832 12.6285 7.14832H14.6532V4.1019L14.2584 4.04855C13.9853 4.0116 13.3619 3.92495 12.2372 3.92495C11.0066 3.92495 9.95025 4.26019 9.22106 5.01867C8.49186 5.77715 8.13178 6.90655 8.13178 8.36475V9.58207H5.7656V13.0055H8.13178V18.8805C4.01414 18.0082 0.910546 14.3978 0.910546 10.016C0.910546 4.9818 4.9818 0.910546 10.016 0.910546Z" fill="#C86B7B"/>
</svg>
