<svg width="26" height="37" viewBox="0 0 26 37" fill="none" xmlns="http://www.w3.org/2000/svg">
<path d="M13 18.5C13 17.0413 13.5795 15.6424 14.6109 14.6109C15.6424 13.5795 17.0413 13 18.5 13C19.9587 13 21.3576 13.5795 22.3891 14.6109C23.4205 15.6424 24 17.0413 24 18.5C24 19.9587 23.4205 21.3576 22.3891 22.3891C21.3576 23.4205 19.9587 24 18.5 24C17.0413 24 15.6424 23.4205 14.6109 22.3891C13.5795 21.3576 13 19.9587 13 18.5V18.5Z" stroke="#C86B7B" stroke-width="3"/>
<path d="M2 29.5C2 28.0413 2.57946 26.6424 3.61091 25.6109C4.64236 24.5795 6.04131 24 7.5 24H13V29.5C13 30.9587 12.4205 32.3576 11.3891 33.3891C10.3576 34.4205 8.95869 35 7.5 35C6.04131 35 4.64236 34.4205 3.61091 33.3891C2.57946 32.3576 2 30.9587 2 29.5Z" stroke="#C86B7B" stroke-width="3"/>
<path d="M13 2V13H18.5C19.9587 13 21.3576 12.4205 22.3891 11.3891C23.4205 10.3576 24 8.95869 24 7.5C24 6.04131 23.4205 4.64236 22.3891 3.61091C21.3576 2.57946 19.9587 2 18.5 2L13 2Z" stroke="#C86B7B" stroke-width="3"/>
<path d="M2 7.5C2 8.95869 2.57946 10.3576 3.61091 11.3891C4.64236 12.4205 6.04131 13 7.5 13H13V2H7.5C6.04131 2 4.64236 2.57946 3.61091 3.61091C2.57946 4.64236 2 6.04131 2 7.5Z" stroke="#C86B7B" stroke-width="3"/>
<path d="M2 18.5C2 19.9587 2.57946 21.3576 3.61091 22.3891C4.64236 23.4205 6.04131 24 7.5 24H13V13H7.5C6.04131 13 4.64236 13.5795 3.61091 14.6109C2.57946 15.6424 2 17.0413 2 18.5Z" stroke="#C86B7B" stroke-width="3"/>
</svg>
