<svg width="15" height="22" viewBox="0 0 15 22" fill="none" xmlns="http://www.w3.org/2000/svg">
<path d="M7.69867 11C7.69867 10.1159 8.04986 9.26809 8.67498 8.64297C9.3001 8.01785 10.1479 7.66666 11.032 7.66666C11.9161 7.66666 12.7639 8.01785 13.389 8.64297C14.0141 9.26809 14.3653 10.1159 14.3653 11C14.3653 11.884 14.0141 12.7319 13.389 13.357C12.7639 13.9821 11.9161 14.3333 11.032 14.3333C10.1479 14.3333 9.3001 13.9821 8.67498 13.357C8.04986 12.7319 7.69867 11.884 7.69867 11V11Z" stroke="#C86B7B"/>
<path d="M1.03201 17.6667C1.03201 16.7826 1.3832 15.9348 2.00832 15.3097C2.63344 14.6845 3.48129 14.3333 4.36535 14.3333H7.69868V17.6667C7.69868 18.5507 7.34749 19.3986 6.72237 20.0237C6.09725 20.6488 5.2494 21 4.36535 21C3.48129 21 2.63344 20.6488 2.00832 20.0237C1.3832 19.3986 1.03201 18.5507 1.03201 17.6667Z" stroke="#C86B7B"/>
<path d="M7.69867 1V7.66667H11.032C11.9161 7.66667 12.7639 7.31548 13.389 6.69036C14.0141 6.06523 14.3653 5.21739 14.3653 4.33333C14.3653 3.44928 14.0141 2.60143 13.389 1.97631C12.7639 1.35119 11.9161 1 11.032 1L7.69867 1Z" stroke="#C86B7B"/>
<path d="M1.03201 4.33333C1.03201 5.21739 1.3832 6.06523 2.00832 6.69036C2.63344 7.31548 3.48129 7.66667 4.36535 7.66667H7.69868V1H4.36535C3.48129 1 2.63344 1.35119 2.00832 1.97631C1.3832 2.60143 1.03201 3.44928 1.03201 4.33333Z" stroke="#C86B7B"/>
<path d="M1.03201 11C1.03201 11.884 1.3832 12.7319 2.00832 13.357C2.63344 13.9821 3.48129 14.3333 4.36535 14.3333H7.69868V7.66666H4.36535C3.48129 7.66666 2.63344 8.01785 2.00832 8.64297C1.3832 9.26809 1.03201 10.1159 1.03201 11Z" stroke="#C86B7B"/>
</svg>
