<svg width="34" height="33" viewBox="0 0 34 33" fill="none" xmlns="http://www.w3.org/2000/svg">
<g clip-path="url(#clip0_392_183)">
<mask id="mask0_392_183" style="mask-type:luminance" maskUnits="userSpaceOnUse" x="0" y="0" width="34" height="33">
<path d="M34 0.336742H0V32.6633H34V0.336742Z" fill="white"/>
</mask>
<g mask="url(#mask0_392_183)">
<path fill-rule="evenodd" clip-rule="evenodd" d="M16.9493 0.336742C7.5768 0.336742 0 7.74491 0 16.9098C0 24.2358 4.85472 30.4371 11.5895 32.6319C12.4315 32.7969 12.7399 32.2754 12.7399 31.8366C12.7399 31.4523 12.7122 30.1353 12.7122 28.7632C7.99728 29.7511 7.01545 26.7876 7.01545 26.7876C6.25773 24.8669 5.13503 24.3732 5.13503 24.3732C3.59186 23.3579 5.24745 23.358 5.24745 23.358C6.95925 23.4677 7.85747 25.0591 7.85747 25.0591C9.37255 27.5833 11.814 26.8701 12.7961 26.4309C12.9363 25.3608 13.3856 24.6201 13.8626 24.2085C10.1022 23.8243 6.14567 22.3975 6.14567 16.0315C6.14567 14.2207 6.81873 12.739 7.88522 11.5867C7.71695 11.1752 7.1275 9.47369 8.05383 7.19636C8.05383 7.19636 9.48495 6.75726 12.7118 8.89754C14.0934 8.53476 15.5182 8.35022 16.9493 8.34867C18.3804 8.34867 19.8393 8.54095 21.1865 8.89754C24.4137 6.75726 25.8448 7.19636 25.8448 7.19636C26.7712 9.47369 26.1814 11.1752 26.0131 11.5867C27.1078 12.739 27.7531 14.2207 27.7531 16.0315C27.7531 22.3975 23.7965 23.7967 20.008 24.2085C20.6255 24.7298 21.1583 25.7175 21.1583 27.2815C21.1583 29.5041 21.1307 31.2877 21.1307 31.8362C21.1307 32.2754 21.4394 32.7969 22.281 32.6323C29.0159 30.4367 33.8705 24.2358 33.8705 16.9098C33.8983 7.74491 26.2938 0.336742 16.9493 0.336742Z" fill="#C86B7B"/>
</g>
</g>
<defs>
<clipPath id="clip0_392_183">
<rect width="34" height="33" fill="white"/>
</clipPath>
</defs>
</svg>
