<svg width="21" height="20" viewBox="0 0 21 20" fill="none" xmlns="http://www.w3.org/2000/svg">
<g clip-path="url(#clip0_369_197)">
<mask id="mask0_369_197" style="mask-type:luminance" maskUnits="userSpaceOnUse" x="0" y="0" width="21" height="20">
<path d="M20.032 0.204102H0.0320129V19.7959H20.032V0.204102Z" fill="white"/>
</mask>
<g mask="url(#mask0_369_197)">
<path fill-rule="evenodd" clip-rule="evenodd" d="M10.0022 0.204102C4.48895 0.204102 0.0320129 4.6939 0.0320129 10.2483C0.0320129 14.6883 2.88773 18.4468 6.84935 19.7769C7.34466 19.8769 7.5261 19.5608 7.5261 19.2949C7.5261 19.062 7.50976 18.2638 7.50976 17.4323C4.7363 18.031 4.15875 16.2349 4.15875 16.2349C3.71303 15.0708 3.05262 14.7717 3.05262 14.7717C2.14487 14.1563 3.11875 14.1563 3.11875 14.1563C4.12569 14.2228 4.65405 15.1873 4.65405 15.1873C5.54528 16.7172 6.9814 16.2849 7.55915 16.0188C7.6416 15.3702 7.90589 14.9213 8.1865 14.6718C5.97446 14.439 3.64711 13.5743 3.64711 9.7161C3.64711 8.6186 4.04303 7.72063 4.67038 7.02226C4.5714 6.77287 4.22466 5.74165 4.76956 4.36145C4.76956 4.36145 5.6114 4.09532 7.50956 5.39246C8.32224 5.1726 9.16035 5.06076 10.0022 5.05981C10.844 5.05981 11.7022 5.17635 12.4947 5.39246C14.393 4.09532 15.2348 4.36145 15.2348 4.36145C15.7798 5.74165 15.4328 6.77287 15.3338 7.02226C15.9778 7.72063 16.3573 8.6186 16.3573 9.7161C16.3573 13.5743 14.0299 14.4223 11.8014 14.6718C12.1647 14.9878 12.4781 15.5863 12.4781 16.5343C12.4781 17.8813 12.4618 18.9623 12.4618 19.2947C12.4618 19.5608 12.6434 19.8769 13.1385 19.7772C17.1002 18.4465 19.9558 14.6883 19.9558 10.2483C19.9722 4.6939 15.4989 0.204102 10.0022 0.204102Z" fill="#C86B7B"/>
</g>
</g>
<defs>
<clipPath id="clip0_369_197">
<rect width="20" height="20" fill="white" transform="translate(0.0320129)"/>
</clipPath>
</defs>
</svg>
