<svg width="33" height="29" viewBox="0 0 33 29" fill="none" xmlns="http://www.w3.org/2000/svg">
<path d="M23.9334 28.3446L23.5334 25.7446C23.1334 25.6113 22.7334 25.478 22.2668 25.2113C21.8668 25.0113 21.5334 24.7446 21.2001 24.4113L18.9334 24.9446L17.8001 22.9446L19.6668 21.2113C19.6001 21.0113 19.6001 20.7446 19.6001 20.3446C19.6001 19.9446 19.6001 19.678 19.6668 19.5446L17.8001 17.7446L18.9334 15.7446L21.2001 16.278C21.4668 16.0113 21.8001 15.7446 22.2668 15.478C22.6668 15.2113 23.0668 15.078 23.5334 14.9446L23.9334 12.3446H26.4668L26.8668 14.9446C27.2668 15.078 27.6668 15.2113 28.0668 15.478C28.4668 15.7446 28.8668 16.0113 29.1334 16.278L31.3334 15.7446L32.4668 17.7446L30.6001 19.5446C30.6668 19.7446 30.7334 20.0113 30.7334 20.4113C30.7334 20.8113 30.6668 21.078 30.6001 21.278L32.4668 23.0113L31.3334 25.0113L29.2001 24.4113C28.9334 24.678 28.5334 24.9446 28.1334 25.2113C27.7334 25.4113 27.3334 25.6113 26.9334 25.7446L26.5334 28.3446H23.9334ZM0.533447 26.878V22.678C0.533447 21.6113 0.800114 20.678 1.33345 19.878C1.86678 19.078 2.60011 18.478 3.46678 18.078C5.33345 17.278 7.06678 16.678 8.73345 16.278C10.4001 15.878 11.9334 15.7446 13.4001 15.7446H14.6668C13.8668 17.278 13.5334 19.2113 13.6001 21.5446C13.6668 23.878 14.2668 25.678 15.3334 26.878H0.533447ZM25.2668 23.278C26.1334 23.278 26.8668 23.0113 27.4001 22.478C27.9334 21.9446 28.2001 21.2113 28.2001 20.278C28.2001 19.4113 27.9334 18.678 27.4001 18.1446C26.8668 17.6113 26.1334 17.3446 25.2668 17.3446C24.4001 17.3446 23.6668 17.6113 23.1334 18.1446C22.5334 18.7446 22.2668 19.4113 22.2668 20.278C22.2668 21.2113 22.5334 21.878 23.0668 22.478C23.6668 23.0113 24.3334 23.278 25.2668 23.278ZM13.4001 13.4113C11.5334 13.4113 10.0001 12.8113 8.86678 11.6113C7.73345 10.4113 7.06678 8.87796 7.06678 7.07796C7.06678 5.2113 7.66678 3.67796 8.86678 2.47796C10.0668 1.27796 11.6001 0.744629 13.4001 0.744629C15.2001 0.744629 16.8001 1.34463 18.0001 2.54463C19.2001 3.74463 19.8001 5.27796 19.8001 7.14463C19.8001 9.0113 19.2001 10.5446 18.0001 11.678C16.8001 12.8113 15.2668 13.4113 13.4001 13.4113Z" fill="#C86B7B"/>
</svg>
