<svg width="29" height="32" viewBox="0 0 29 32" fill="none" xmlns="http://www.w3.org/2000/svg">
<path d="M23.5 31.3447C22.25 31.3447 21.1875 30.9072 20.3125 30.0322C19.4375 29.1572 19 28.0947 19 26.8447C19 26.6697 19.0125 26.4885 19.0375 26.301C19.0625 26.1135 19.1 25.9447 19.15 25.7947L8.575 19.6447C8.15 20.0197 7.675 20.3135 7.15 20.526C6.625 20.7385 6.075 20.8447 5.5 20.8447C4.25 20.8447 3.1875 20.4072 2.3125 19.5322C1.4375 18.6572 1 17.5947 1 16.3447C1 15.0947 1.4375 14.0322 2.3125 13.1572C3.1875 12.2822 4.25 11.8447 5.5 11.8447C6.075 11.8447 6.625 11.951 7.15 12.1635C7.675 12.376 8.15 12.6697 8.575 13.0447L19.15 6.89473C19.1 6.74473 19.0625 6.57598 19.0375 6.38848C19.0125 6.20098 19 6.01973 19 5.84473C19 4.59473 19.4375 3.53223 20.3125 2.65723C21.1875 1.78223 22.25 1.34473 23.5 1.34473C24.75 1.34473 25.8125 1.78223 26.6875 2.65723C27.5625 3.53223 28 4.59473 28 5.84473C28 7.09473 27.5625 8.15723 26.6875 9.03223C25.8125 9.90723 24.75 10.3447 23.5 10.3447C22.925 10.3447 22.375 10.2385 21.85 10.026C21.325 9.81348 20.85 9.51973 20.425 9.14473L9.85 15.2947C9.9 15.4447 9.9375 15.6135 9.9625 15.801C9.9875 15.9885 10 16.1697 10 16.3447C10 16.5197 9.9875 16.701 9.9625 16.8885C9.9375 17.076 9.9 17.2447 9.85 17.3947L20.425 23.5447C20.85 23.1697 21.325 22.876 21.85 22.6635C22.375 22.451 22.925 22.3447 23.5 22.3447C24.75 22.3447 25.8125 22.7822 26.6875 23.6572C27.5625 24.5322 28 25.5947 28 26.8447C28 28.0947 27.5625 29.1572 26.6875 30.0322C25.8125 30.9072 24.75 31.3447 23.5 31.3447ZM23.5 7.34473C23.925 7.34473 24.2812 7.20098 24.5687 6.91348C24.8562 6.62598 25 6.26973 25 5.84473C25 5.41973 24.8562 5.06348 24.5687 4.77598C24.2812 4.48848 23.925 4.34473 23.5 4.34473C23.075 4.34473 22.7187 4.48848 22.4312 4.77598C22.1437 5.06348 22 5.41973 22 5.84473C22 6.26973 22.1437 6.62598 22.4312 6.91348C22.7187 7.20098 23.075 7.34473 23.5 7.34473ZM5.5 17.8447C5.925 17.8447 6.28125 17.701 6.56875 17.4135C6.85625 17.126 7 16.7697 7 16.3447C7 15.9197 6.85625 15.5635 6.56875 15.276C6.28125 14.9885 5.925 14.8447 5.5 14.8447C5.075 14.8447 4.71875 14.9885 4.43125 15.276C4.14375 15.5635 4 15.9197 4 16.3447C4 16.7697 4.14375 17.126 4.43125 17.4135C4.71875 17.701 5.075 17.8447 5.5 17.8447ZM23.5 28.3447C23.925 28.3447 24.2812 28.201 24.5687 27.9135C24.8562 27.626 25 27.2697 25 26.8447C25 26.4197 24.8562 26.0635 24.5687 25.776C24.2812 25.4885 23.925 25.3447 23.5 25.3447C23.075 25.3447 22.7187 25.4885 22.4312 25.776C22.1437 26.0635 22 26.4197 22 26.8447C22 27.2697 22.1437 27.626 22.4312 27.9135C22.7187 28.201 23.075 28.3447 23.5 28.3447Z" fill="#C86B7B" stroke="#C86B7B"/>
</svg>
