<svg width="34" height="34" viewBox="0 0 34 34" fill="none" xmlns="http://www.w3.org/2000/svg">
<mask id="mask0_439_289" style="mask-type:alpha" maskUnits="userSpaceOnUse" x="0" y="0" width="34" height="34">
<rect x="0.657227" y="0.260864" width="33" height="33" fill="#D9D9D9"/>
</mask>
<g mask="url(#mask0_439_289)">
<path d="M4.85837 33.2447C3.89205 33.2447 3.06482 32.9006 2.37669 32.2125C1.68855 31.5243 1.34448 30.6971 1.34448 29.7308V5.13358C1.34448 4.16726 1.68855 3.34003 2.37669 2.65189C3.06482 1.96376 3.89205 1.61969 4.85837 1.61969H17.157V5.13358H4.85837V29.7308H29.4556V17.4322H32.9695V29.7308C32.9695 30.6971 32.6254 31.5243 31.9373 32.2125C31.2491 32.9006 30.4219 33.2447 29.4556 33.2447H4.85837ZM13.116 23.9329L10.6563 21.4732L26.9959 5.13358H20.6709V1.61969H32.9695V13.9183H29.4556V7.5933L13.116 23.9329Z" fill="#C86B7B"/>
</g>
</svg>
